<svg xmlns="http://www.w3.org/2000/svg" preserveAspectRatio="xMidYMid" width="25" height="25" viewBox="0 0 25 25"><defs><style>.cls-1{fill:#fff;fill-rule:evenodd}</style></defs><path d="M12.499 25C5.607 25 0 19.392 0 12.5S5.607.001 12.499.001s12.5 5.607 12.5 12.499S19.391 25 12.499 25zm0-24.037C6.138.963.962 6.139.962 12.5c0 2.795 1 5.36 2.659 7.358.065-.216.134-.394.205-.548.376-.808.883-3.294 5.78-3.622.307-.02 1.629.912 2.893.912 1.265 0 2.586-.932 2.894-.912 4.896.328 5.403 2.814 5.779 3.622.071.154.14.332.205.548a11.483 11.483 0 0 0 2.659-7.358c0-6.361-5.175-11.537-11.537-11.537zm0 14.325c-1.991 0-4.794-2.462-4.794-5.497 0-3.035 2.145-5.497 4.794-5.497 2.649 0 4.794 2.462 4.794 5.497 0 3.035-2.803 5.497-4.794 5.497z" class="cls-1"/></svg>