<svg xmlns="http://www.w3.org/2000/svg" preserveAspectRatio="xMidYMid" width="28.19" height="13.562" viewBox="0 0 28.19 13.562"><defs><style>.cls-1{fill:#fff;fill-rule:evenodd}</style></defs><path d="M26.58 1.699c.674 0 1.185-.03 1.574-.075a8.11 8.11 0 0 0-.06 1.11v.735c0 .48.015.765.091 1.155h-.991v-2.22h-5.099v1.53c0 .72.015 1.05.09 1.485H21.12c.06-.405.089-.81.089-1.485v-1.53H16.32v2.22h-.99c.06-.39.09-.675.09-1.155v-.735c0-.435-.015-.75-.06-1.11.375.06.825.075 1.575.075h4.274v-.675H17.88c-.66 0-1.005.015-1.5.06v-.9c.465.06.945.09 1.545.09h7.74c.66 0 1.08-.03 1.5-.09v.9c-.465-.045-.735-.06-1.44-.06h-3.63v.675h4.485zm-8.505 2.01c-.42 0-.63.015-.915.06v-.705c.27.045.48.06.915.06H19.5c.39 0 .615-.015.87-.06v.705a4.732 4.732 0 0 0-.87-.06h-1.425zm2.295 1.335c-.3-.045-.495-.06-.87-.06h-1.44c-.42 0-.615.015-.915.06v-.705c.27.045.48.06.915.06h1.44c.375 0 .645-.015.87-.06v.705zm-3.675 1.14c0-.3-.015-.45-.06-.645h.93c-.03.225-.045.375-.045.645h2.73c0-.21-.015-.375-.045-.63h.915c-.045.21-.06.345-.06.63h.315c.57 0 .87-.015 1.215-.06v.78a9.176 9.176 0 0 0-1.23-.06h-.3v.404c0 .346.015.585.044.796-.404-.03-.674-.03-1.109-.03h-.765v.6h1.59c.615 0 .855-.015 1.23-.045-.03.345-.03.54-.03.795v.449c0 .301 0 .496.03.871-.36-.045-.705-.061-1.395-.061H19.23v.63h1.83c.54 0 .825-.014 1.155-.059v.809a8.116 8.116 0 0 0-1.155-.06h-1.83v.375a7 7 0 0 0 .09 1.23h-.99c.075-.329.09-.63.09-1.23v-.375h-1.995c-.615 0-.915.015-1.32.076v-.84c.375.06.705.074 1.335.074h1.98v-.63h-1.38c-.675 0-1.02.016-1.41.061.045-.27.06-.48.06-.855v-.435c0-.36-.015-.525-.06-.825.42.03.675.045 1.275.045h1.515v-.6h-.645c-.435 0-.72 0-1.125.03.03-.211.045-.465.045-.796v-.404h-.33c-.54 0-.885.015-1.29.075v-.81c.39.06.66.075 1.275.075h.345zm2.535 3.855h1.979v-.825H19.23v.825zm-2.715-.825v.825h1.905v-.825h-1.905zm1.005-1.785h2.73v-.585h-2.73v.585zm-4.621 4.86c0 .45-.12.75-.39.915-.21.149-.525.194-1.125.194-.57 0-1.079-.015-1.634-.074a4.41 4.41 0 0 0-.271-1.006c.721.105 1.306.151 1.815.151.525 0 .645-.075.645-.39V1.489H6.195c-.72 0-1.215.03-1.575.09V.529c.405.075.975.105 1.575.105h5.354c1.17-.03 1.17-.03 1.41-.06-.044.375-.06.855-.06 1.38v10.335zM.885.649l.705-.66c.93.66 1.545 1.2 2.34 2.01l-.705.765C2.49 1.924 1.845 1.339.885.649zm1.05 3.885c.435 0 .795-.03 1.155-.075-.06.48-.075.84-.075 1.59v5.07c.24-.15.435-.286.555-.36.615-.406.705-.45 1.245-.855l.075 1.065c-.585.344-.75.465-1.44.929-.285.181-.495.33-.66.42-.225.151-.51.33-.84.571l-.435-.991c.345-.134.48-.299.525-.629V5.434h-.945c-.495 0-.72.015-1.095.075v-1.05c.375.06.6.075 1.155.075h.78zm7.649-1.44c.735 0 .96-.015 1.306-.06v.975c-.33-.045-.556-.06-1.29-.06H6.225c-.75 0-.975.015-1.32.06v-.975c.345.045.57.06 1.32.06h3.359zM5.625 6.619c0-.495-.015-.81-.06-1.2.315.045.63.06 1.155.06h2.384c.541 0 .855-.015 1.17-.06-.045.345-.06.675-.06 1.215v2.205c0 .48.015.78.046 1.125-.345-.03-.66-.046-1.051-.046H6.54v1.185h-.99c.06-.359.075-.734.075-1.214v-3.27zm.9 2.49h2.789V6.274H6.525v2.835zm17.37-5.4c-.42 0-.645.015-.916.06v-.705c.271.045.48.06.916.06h1.635c.389 0 .599-.015.869-.06v.705a4.932 4.932 0 0 0-.869-.06h-1.635zm2.504 1.335a4.818 4.818 0 0 0-.869-.06h-1.635c-.405 0-.66.015-.916.06v-.705c.286.045.48.06.916.06h1.635c.389 0 .599-.015.869-.06v.705zm-3.359.915c.359.045.66.06 1.214.06h2.205c.63 0 .916-.015 1.306-.06-.046.345-.06.765-.06 1.41v4.694c0 .976-.301 1.23-1.38 1.23-.361 0-.571-.015-1.17-.06a3.095 3.095 0 0 0-.24-.929c.555.09 1.049.15 1.424.15.42 0 .511-.09.511-.48v-1.411h-3.076c-.21 1.29-.629 2.101-1.559 2.985-.27-.255-.45-.389-.78-.54 1.379-1.215 1.665-2.13 1.665-5.444 0-.915-.016-1.245-.06-1.605zm3.81.81h-2.911v1.14h2.911v-1.14zm0 3.075V8.629h-2.925c-.015.434-.03.96-.06 1.215h2.985z" class="cls-1"/></svg>