<svg xmlns="http://www.w3.org/2000/svg" preserveAspectRatio="xMidYMid" width="58.24" height="13.594" viewBox="0 0 58.24 13.594"><defs><style>.cls-1{fill:#fff;fill-rule:evenodd}</style></defs><path d="M56.72 4.732c.645 0 1.154-.029 1.529-.089v1.02c-.404-.06-.9-.09-1.529-.09h-.36v1.724h.09c.629 0 1.02-.014 1.455-.089v1.02a9.781 9.781 0 0 0-1.455-.09h-.09v4.259c0 .825-.375 1.11-1.5 1.11-.495 0-.886-.015-1.575-.075a3.669 3.669 0 0 0-.255-1.02c.645.135 1.17.195 1.739.195.525 0 .661-.09.661-.435V8.138h-4.005c-.63 0-1.035.029-1.515.09v-1.02c.465.075.855.089 1.53.089h3.99V5.573h-4.456c-.614 0-1.124.03-1.529.074V4.643c.375.06.9.089 1.529.089h2.19V2.753H51.44c-.555 0-.945.015-1.41.075V1.823c.375.06.795.09 1.41.09h1.724v-.6c0-.435-.029-.81-.089-1.2h1.109c-.06.39-.089.72-.089 1.2v.6H56.3c.614 0 1.049-.03 1.424-.09v1.005a10.2 10.2 0 0 0-1.424-.075h-2.205v1.979h2.625zm-8.67-.839v2.969c.075-.029.09-.029.165-.074.48-.195.795-.346 1.44-.69v.915a32.74 32.74 0 0 1-1.605.779v4.65c0 .855-.33 1.065-1.65 1.065-.285 0-.495-.015-.975-.03a3.066 3.066 0 0 0-.21-.945c.645.075.975.105 1.335.105.435 0 .555-.09.555-.435V8.197c-.18.075-.81.33-1.23.495a6.307 6.307 0 0 0-.585.255l-.27-1.02c.525-.074 1.11-.269 2.085-.675V3.893h-.87c-.42 0-.765.015-1.11.06v-.99c.39.059.69.09 1.125.09h.855v-1.44c0-.66-.03-1.005-.105-1.515h1.155c-.075.435-.105.87-.105 1.5v1.455h.48c.495 0 .72-.015 1.02-.075v.975c-.33-.045-.57-.06-1.005-.06h-.495zm-4.651 8.534c-.284.375-.404.57-.57 1.005-2.535-.645-4.319-1.44-6.059-2.7-1.845 1.305-3.72 2.115-6.12 2.64a3.288 3.288 0 0 0-.54-.945c2.295-.405 4.26-1.17 5.895-2.295a10.222 10.222 0 0 1-1.725-1.799c-.48-.63-.69-.991-1.14-1.965h-.195c-.66 0-1.125.029-1.59.09v-1.02c.39.06.9.09 1.605.09h3.135V3.113h-4.26c-.63 0-1.125.03-1.56.09v-1.08c.45.075.945.105 1.575.105h4.245v-.915c0-.6-.03-.9-.105-1.305h1.185c-.076.36-.105.69-.105 1.305v.915h4.485c.629 0 1.125-.03 1.574-.105v1.08c-.435-.06-.929-.09-1.574-.09H37.07v2.415h2.025c.66 0 1.02-.015 1.319-.075l.645.645c-.18.21-.285.36-.524.735-.766 1.185-1.755 2.294-2.985 3.314 1.65 1.095 3.375 1.77 5.849 2.28zM39.68 6.368h-5.505c.645 1.38 1.305 2.19 2.58 3.224 1.32-1.034 2.054-1.86 2.925-3.224zm-11.131 4.215c-.42.419-.525.54-.75.944-1.034-.69-1.394-.975-2.474-1.949-1.005-.886-1.44-1.381-2.22-2.431a1.566 1.566 0 0 1-.106-.149c-.434-.57-.614-.855-1.065-1.681.046.69.061 1.125.061 1.71v4.846c0 .734.03 1.199.104 1.724h-1.214c.075-.57.105-1.02.105-1.724V7.027c0-.074.03-.63.105-1.679-.735 1.514-1.395 2.415-2.745 3.779a19.966 19.966 0 0 1-2.925 2.445c-.27-.42-.45-.614-.765-.87 1.695-1.05 2.835-2.025 4.245-3.644.9-1.005 1.29-1.56 1.95-2.715H16.82c-.57 0-.975.014-1.65.09v-1.08c.555.075.975.105 1.635.105h4.185V1.523c0-.51-.03-.87-.105-1.38h1.214c-.074.48-.104.87-.104 1.365v1.95h4.41c.779 0 1.199-.03 1.694-.105v1.08c-.615-.06-1.095-.09-1.68-.09h-4.304c.81 1.32 1.455 2.13 2.565 3.269 1.245 1.275 2.234 2.04 3.869 2.971zm-4.919-9.36l.63-.675c1.094.645 1.35.84 2.324 1.695l-.659.735c-.855-.855-1.201-1.11-2.295-1.755zM12.95 13.582c-1.71-.735-3.045-1.575-4.246-2.669-1.544 1.274-2.894 2.039-4.514 2.594a3.053 3.053 0 0 0-.555-.9c1.59-.45 3.045-1.214 4.424-2.339a10.956 10.956 0 0 1-1.574-2.19c-.3-.54-.375-.721-.585-1.306l-.105-.314c-.27.015-.54.03-.9.075v-.991c.375.061.825.091 1.335.091h1.89V3.187H6.335c-.735 0-1.23.031-1.59.076V2.258c.345.045.825.075 1.575.075h1.8v-.75c0-.57-.03-1.035-.105-1.515H9.14c-.075.45-.105.915-.105 1.515v.75h2.549c.63 0 1.14-.03 1.56-.09v1.035c-.375-.06-.96-.091-1.56-.091H9.035v2.446h1.814c.496 0 .811-.015 1.036-.06l.509.57a7.51 7.51 0 0 0-.464.839c-.57 1.11-1.456 2.266-2.536 3.315 1.275 1.096 2.431 1.74 4.141 2.325-.255.33-.436.6-.585.96zm-1.786-7.124h-4.44c.436 1.274.976 2.145 2.011 3.225 1.11-1.02 1.844-1.995 2.429-3.225zm-6.689-.36l.015.929c-.66.33-1.11.54-1.455.705v4.695c0 .855-.315 1.065-1.59 1.065-.405 0-.66-.015-1.095-.045a2.715 2.715 0 0 0-.225-.945c.51.075.975.12 1.38.12.465 0 .585-.09.585-.435v-4.02c-.69.3-.69.3-1.185.496-.225.105-.375.165-.6.284l-.3-1.02c.585-.105.765-.164 2.085-.719V3.833h-.81c-.39 0-.69.015-1.23.09v-1.02c.375.06.72.09 1.23.09h.81v-1.44c0-.555-.03-1.035-.105-1.515H3.14c-.075.435-.105.93-.105 1.5v1.455h.345c.42 0 .765-.015 1.11-.076v.976a9.185 9.185 0 0 0-1.14-.06h-.315v2.97c.69-.315.81-.375 1.44-.705zm48.975 4.979l-.766.631c-.779-1.096-1.199-1.576-2.114-2.4l.765-.511c.9.84 1.275 1.23 2.115 2.28z" class="cls-1"/></svg>