<svg xmlns="http://www.w3.org/2000/svg" width="57" height="44" viewBox="0 0 57 44"><path fill="#FFF" d="M7.513 22.239c-.414-.467-1.081-.885-2.003-1.255-.762-.318-1.298-.621-1.605-.906-.339-.329-.508-.747-.508-1.256 0-.444.153-.82.461-1.128.381-.371.916-.556 1.605-.556.762 0 1.409.165 1.938.493l.365-.985c-.572-.339-1.324-.508-2.257-.508-.985 0-1.785.268-2.399.802-.615.535-.923 1.216-.923 2.042 0 1.314.921 2.32 2.76 3.02.722.265 1.24.569 1.554.914.314.344.471.782.471 1.312 0 .583-.205 1.048-.614 1.398-.408.349-.975.524-1.697.524a4.389 4.389 0 0 1-2.375-.667l-.336.998c.656.456 1.53.684 2.622.684 1.155 0 2.061-.302 2.718-.906.593-.551.89-1.261.89-2.13 0-.751-.223-1.382-.667-1.89zm8.794 2.733v-5.641H15.1v4.751c0 .276-.043.524-.127.747a2.04 2.04 0 0 1-.684.906c-.36.286-.769.43-1.224.43-1.166 0-1.749-.848-1.749-2.543v-4.29h-1.207v4.513c0 1.218.286 2.108.858 2.669.435.445 1.006.667 1.716.667 1.134 0 1.965-.476 2.495-1.43h.048l.064 1.255h1.08a33.405 33.405 0 0 1-.063-2.034zm8.652-4.72c-.607-.721-1.374-1.081-2.301-1.081-1.225 0-2.125.498-2.7 1.494l-.064-1.335h-1.096c.042.825.063 1.65.063 2.476v8.33h1.208v-4.195c.49.826 1.278 1.239 2.365 1.239.958 0 1.752-.344 2.381-1.033.703-.752 1.055-1.78 1.055-3.083 0-1.153-.304-2.092-.911-2.812zm-.919 5.086c-.437.582-1.025.874-1.77.874-.639 0-1.165-.223-1.579-.667-.415-.445-.622-.985-.622-1.621v-1.399c0-.147.026-.344.08-.588a2.38 2.38 0 0 1 .82-1.303 2.102 2.102 0 0 1 1.349-.493c.732 0 1.312.297 1.737.889.405.551.606 1.246.606 2.083.001.932-.206 1.674-.621 2.225zm9.987-5.086c-.606-.721-1.374-1.081-2.301-1.081-1.226 0-2.125.498-2.701 1.494l-.062-1.335h-1.097c.042.825.063 1.65.063 2.476v8.33h1.208v-4.195c.489.826 1.278 1.239 2.364 1.239.959 0 1.753-.344 2.383-1.033.702-.752 1.054-1.78 1.054-3.083 0-1.153-.303-2.092-.911-2.812zm-.919 5.086c-.437.582-1.026.874-1.771.874-.638 0-1.164-.223-1.579-.667-.414-.445-.621-.985-.621-1.621v-1.399c0-.147.026-.344.079-.588.139-.54.412-.974.821-1.303s.858-.493 1.348-.493c.734 0 1.313.297 1.739.889.403.551.605 1.246.605 2.083.001.932-.206 1.674-.621 2.225zm9.746-5.022c-.658-.763-1.537-1.145-2.639-1.145-1.134 0-2.039.398-2.718 1.191-.646.752-.97 1.706-.97 2.861 0 1.122.312 2.049.938 2.781.657.784 1.531 1.175 2.623 1.175 1.144 0 2.056-.402 2.733-1.208.646-.751.97-1.711.97-2.875 0-1.122-.313-2.049-.937-2.78zm-.909 4.913c-.458.676-1.062 1.015-1.817 1.015-.756 0-1.356-.333-1.803-1-.394-.581-.589-1.263-.589-2.044 0-.823.19-1.522.572-2.092.438-.665 1.053-.999 1.851-.999.765 0 1.366.328 1.802.984.383.57.574 1.257.574 2.06 0 .792-.197 1.485-.59 2.076zm7.475-6.026a1.926 1.926 0 0 0-.367-.031 2 2 0 0 0-1.271.452c-.382.303-.662.708-.843 1.216h-.048l-.046-1.509h-1.05c.031.773.048 1.552.048 2.336v5.339h1.207v-4.147c0-.668.147-1.235.442-1.7.358-.562.853-.842 1.484-.842h.443v-1.114zm5.67.128h-2.004v-1.796l-1.207.397v1.399H50.67v.937h1.209v4.386c0 .901.168 1.544.508 1.931.34.387.82.58 1.447.58.467 0 .852-.059 1.16-.175l-.064-.938a2.532 2.532 0 0 1-.803.112c-.693 0-1.041-.503-1.041-1.51v-4.386h2.004v-.937z"/></svg>