<svg xmlns="http://www.w3.org/2000/svg" preserveAspectRatio="xMidYMid" width="82.31" height="13.656" viewBox="0 0 82.31 13.656"><defs><style>.cls-1{fill:#fff;fill-rule:evenodd}</style></defs><path d="M79.164 13.026c-2.4 0-2.67-.33-2.67-1.635V2.617c0-.736-.045-1.426-.105-1.83.435.06 1.32.105 1.665.09.33-.016.36.209.075.314-.165.061-.315.36-.315.54v9.42c0 .465.09.645 1.335.645 1.38 0 1.56-.24 1.86-1.845.195.375.795.825 1.29.9-.525 1.83-.855 2.175-3.135 2.175zM73.839 2.991c0 4.755-.03 5.04-.285 6.06-.465 1.89-1.934 3.48-3.69 4.44-.39-.57-.914-1.035-1.289-1.2 1.769-.42 3.239-1.815 3.614-3.135.315-1.05.42-2.46.345-4.92-.06-2.145-.105-2.909-.195-3.284.45.105 1.215.165 1.62.165.27 0 .3.179.075.329-.105.06-.195.495-.195 1.545zm-9.93 10.05c-1.98 0-2.04-.06-2.04-1.71V9.096h-2.79c.045 1.11-.195 2.22-.51 2.655-.54.75-1.815 1.515-3.21 1.83-.12-.45-.48-.93-.975-1.335 1.756 0 2.715-.48 3.15-1.14.33-.495.405-1.14.315-3.135.735.06 1.68.09 2.67.09 1.035 0 1.845-.015 2.67-.09-.09.465-.135 1.215-.135 1.665v1.485c0 .825.06.885.9.885 1.365 0 1.59-.255 1.65-1.695.36.48.855.75 1.275.825-.48 1.89-.675 1.905-2.97 1.905zm-9.09-4.32v-2.76c1.065.075 2.19.121 5.715.121s4.65-.046 5.715-.121v2.535h-1.155V7.071h-9.15v1.65h-1.125zm6.255-4.679c1.95-.016 3.285-.045 4.38-.121v1.201c-1.215-.076-2.715-.12-5.025-.12-2.28 0-3.795.044-4.98.12V3.921c1.125.076 2.43.121 4.35.121V2.676c-2.37.015-4.005.046-5.31.12V1.537c1.381.074 2.94.105 5.31.12-.015-.645-.06-1.35-.12-1.651.48.06.945.091 1.53.091.27 0 .3.09.06.239-.12.091-.195.331-.195.676v.645c2.43 0 4.065-.046 5.43-.12v1.259c-1.365-.074-3-.12-5.43-.12v1.366zm-10.77 1.529c-.27-.165-.57-.285-1.08-.344.585-.886.915-1.725 1.23-2.821.435.256.96.45 1.2.511.225.074.255.165.03.314-.165.105-.435.556-1.38 2.34zm1.14-3.855c-.675-.074-1.35-.059-2.64.12-1.65.226-2.985.375-4.275.465-.09-.42-.195-.75-.39-1.094.945.029 1.935-.031 3.63-.3 1.32-.21 2.145-.435 2.85-.72.195.419.555.915.885 1.245.21.21.15.315-.06.284zm-9.36 5.715l.72-.6c.45.51.885 1.05 1.29 1.605l-1.11.66a9 9 0 0 0-.9-1.665zm1.71-5.789c-.27-.015-.885.134-1.799.42v2.339c.704-.015 1.304-.06 1.709-.134v1.199c-.345-.045-.99-.089-1.709-.105v5.61c0 .735.044 1.695.119 2.61h-1.365c.075-.915.121-1.875.121-2.61v-3.27a26.369 26.369 0 0 1-1.531 3.36c-.255-.48-.51-.93-.81-1.29 1.08-1.245 1.8-2.745 2.295-4.425-.765.015-1.515.075-1.92.12V4.267c.466.074 1.185.119 1.966.134V2.377c-.436.12-.901.24-1.44.345-.105-.435-.21-.676-.466-.991.72-.074 1.665-.314 2.25-.524a8.537 8.537 0 0 0 1.86-.84c.195.449.45.809.735 1.02.255.195.225.284-.015.255zM36.918 5.93c-.512 0-.941.242-1.285.725-.345.484-.516 1.143-.516 1.978v3.823h-1.202v-7.5h1.202v1.546h.029c.171-.528.432-.939.784-1.234a1.783 1.783 0 0 1 1.179-.444c.312 0 .552.034.718.103v1.245c-.21-.161-.513-.242-.909-.242zm-9.441 5.01c.43.454 1.021.681 1.773.681.845 0 1.621-.278 2.329-.835v1.128c-.659.479-1.531.718-2.615.718-1.059 0-1.892-.341-2.497-1.022-.606-.681-.909-1.639-.909-2.875 0-1.167.331-2.117.993-2.852.661-.735 1.483-1.103 2.465-1.103.981 0 1.74.318 2.277.952.537.635.806 1.517.806 2.645v.629h-5.295c.019.835.244 1.48.673 1.934zm3.392-2.952c-.005-.693-.173-1.233-.502-1.618-.33-.386-.788-.579-1.373-.579a1.94 1.94 0 0 0-1.443.608c-.396.405-.64.935-.733 1.589h4.051zm-8.387-2.197c-.766 0-1.395.274-1.885.824-.492.549-.737 1.271-.737 2.164 0 .879.231 1.573.693 2.08.461.508 1.08.762 1.856.762.654 0 1.27-.217 1.846-.652v1.143c-.576.347-1.26.52-2.051.52-1.069 0-1.933-.348-2.589-1.044-.657-.695-.985-1.598-.985-2.706 0-1.235.354-2.228 1.062-2.978.708-.749 1.653-1.124 2.834-1.124.659 0 1.24.122 1.743.367v1.23c-.556-.391-1.152-.586-1.787-.586zm-8.994 6.841c-1.108 0-1.993-.35-2.655-1.051-.662-.701-.992-1.63-.992-2.787 0-1.26.344-2.244 1.032-2.952.689-.708 1.619-1.062 2.791-1.062 1.118 0 1.991.345 2.618 1.033.628.689.942 1.643.942 2.864 0 1.196-.339 2.155-1.015 2.875-.676.72-1.583 1.08-2.721 1.08zm1.879-6.079c-.418-.508-1.015-.762-1.791-.762-.771 0-1.382.263-1.831.787-.449.526-.674 1.249-.674 2.172 0 .889.227 1.589.681 2.102.454.513 1.062.769 1.824.769.776 0 1.373-.251 1.791-.754.417-.503.626-1.219.626-2.146 0-.938-.209-1.66-.626-2.168zM2.78 12.456H-.003V1.953h2.9c3.702 0 5.552 1.707 5.552 5.12 0 1.621-.514 2.924-1.542 3.908-1.028.983-2.403 1.475-4.127 1.475zm.088-9.39H1.227v8.277h1.568c1.377 0 2.449-.369 3.215-1.106.767-.737 1.15-1.782 1.15-3.135 0-2.69-1.431-4.036-4.292-4.036zm42.351.061c.33.6.63 1.214.96 1.995l-1.185.494a5.841 5.841 0 0 0-.81-2.025l1.035-.464zm1.65-.136l1.155-.3c.255.721.465 1.545.615 2.311l-1.215.299c-.09-.81-.285-1.65-.555-2.31zm-2.58 4.71c0-.449-.03-.765-.09-1.034.885-.031 1.725-.27 2.82-.721.165.39.45.765.645.96.195.195.135.255-.135.195-.27-.059-.9.06-2.145.36v1.455h1.185c.36 0 .63-.03.885-.075v1.095a7.3 7.3 0 0 0-.9-.06h-1.17v1.575h4.965v-1.68h-1.005c-.42 0-.735.03-1.035.075V8.751c.3.045.615.075 1.05.075h.99V7.461h-1.035c-.27 0-.585.015-.915.061V6.366c.51.045 1.035.06 1.59.06.525 0 1.065-.015 1.59-.06-.03.225-.06.825-.06 1.29v3.66c0 .555.015 1.02.09 1.965h-1.26v-.855h-4.965v1.215h-1.23c.105-.915.135-1.35.135-1.875V7.701z" class="cls-1"/></svg>