<svg xmlns="http://www.w3.org/2000/svg" preserveAspectRatio="xMidYMid" width="30.06" height="30.031" viewBox="0 0 30.06 30.031"><defs><style>.cls-1{fill:#fff;fill-rule:evenodd}</style></defs><path d="M15.017-.008C6.719-.008-.008 6.719-.008 15.016c0 8.299 6.727 15.027 15.025 15.027 8.299 0 15.026-6.728 15.026-15.027 0-8.297-6.727-15.024-15.026-15.024zm4.378 23.316h-.013c-.208.4-.613.674-1.093.674-.473 0-.883-.274-1.089-.674h-.007l-1.806-3.869 1.395-2.989 1.338 2.873c.169.32.328-.01.328-.01l3.799-8.054s.142-.331-.214-.331h-3.012c-.364 0-.541.323-.541.323l-3.463 7.393-2.174 4.664h-.008c-.206.4-.616.674-1.09.674-.478 0-.882-.274-1.092-.674h-.013L4.252 9.669a.967.967 0 0 1-.056-.316c0-.525.416-.95.936-.968l7.24-.002c.421.015.781.268.948.636l1.333 2.861-1.399 3-1.7-3.629s-.175-.323-.54-.323H8.002c-.356 0-.214.331-.214.331l3.799 8.054s.158.328.329.009l1.792-3.846 3.008-6.457a1.08 1.08 0 0 1 .948-.636l7.24.002c.52.018.936.443.936.968a.994.994 0 0 1-.056.316l-6.389 13.639z" class="cls-1"/></svg>