<svg xmlns="http://www.w3.org/2000/svg" preserveAspectRatio="xMidYMid" width="61.472" height="11.281" viewBox="0 0 61.472 11.281"><defs><style>.cls-1{fill:#fff;fill-rule:evenodd}</style></defs><path d="M60.251 11.112V.009h1.202v11.103h-1.202zm-3.017-9.404a.758.758 0 0 1-.549-.22.738.738 0 0 1-.227-.556c0-.225.075-.411.227-.561a.756.756 0 0 1 .549-.223.778.778 0 0 1 .56 1.333.77.77 0 0 1-.56.227zm-4.08 8.232h-.029c-.522.899-1.292 1.348-2.307 1.348-.747 0-1.332-.198-1.754-.593-.423-.396-.634-.921-.634-1.575 0-1.401.825-2.217 2.476-2.446l2.248-.315c0-1.275-.515-1.912-1.545-1.912-.903 0-1.719.308-2.446.923V4.14c.737-.469 1.587-.703 2.548-.703 1.763 0 2.644.932 2.644 2.797v4.878h-1.201V9.94zm0-2.622l-1.809.249c-.556.079-.976.216-1.26.414-.283.198-.424.548-.424 1.051 0 .366.13.666.391.898.261.232.61.347 1.044.347.596 0 1.088-.209 1.476-.626.388-.418.582-.946.582-1.586v-.747zm-7.99-3.252c0-.556.034-1.237.102-2.043h-.029c-.117.474-.222.813-.315 1.018l-3.589 8.071h-.601L37.151 3.1c-.103-.235-.208-.594-.315-1.077h-.029c.039.42.058 1.106.058 2.058v7.031h-1.186V.609h1.626l3.222 7.325c.249.561.41.981.484 1.259h.044c.21-.576.378-1.005.505-1.289L44.849.609h1.538v10.503h-1.223V4.066zm-16.813 6.585a3.601 3.601 0 0 1-1.19.487c-.45.1-.923.15-1.421.15a6.01 6.01 0 0 1-.615-.04 8.563 8.563 0 0 1-.748-.117 6.214 6.214 0 0 1-.721-.191 2.258 2.258 0 0 1-.546-.252V9.237c.166.147.365.279.598.396.231.117.475.216.732.297.256.08.514.142.772.186.259.044.498.066.718.066.757 0 1.322-.14 1.695-.421.375-.281.561-.685.561-1.212 0-.283-.062-.53-.186-.74a2.12 2.12 0 0 0-.517-.575 5.203 5.203 0 0 0-.78-.498 71.1 71.1 0 0 0-.971-.502 15.793 15.793 0 0 1-1.025-.564 4.48 4.48 0 0 1-.828-.629 2.621 2.621 0 0 1-.552-.78 2.408 2.408 0 0 1-.202-1.022c0-.479.105-.895.315-1.249.21-.354.486-.646.828-.875.341-.23.731-.401 1.168-.513a5.358 5.358 0 0 1 1.336-.168c1.036 0 1.79.124 2.264.373v1.384c-.62-.429-1.416-.644-2.388-.644a3.94 3.94 0 0 0-.806.084 2.263 2.263 0 0 0-.717.275c-.21.127-.381.29-.513.49a1.305 1.305 0 0 0-.198.733c0 .268.05.5.15.696.1.195.248.373.443.534.196.162.433.318.714.469.281.151.605.318.971.498.376.186.732.381 1.069.586.337.205.633.432.886.681.254.249.456.525.604.828.149.303.224.649.224 1.04 0 .518-.101.956-.304 1.314-.203.36-.476.651-.82.876zM17.815 7.143h-1.384v3.969H15.2V.609h2.886c1.123 0 1.993.274 2.611.821.617.547.927 1.318.927 2.314s-.344 1.812-1.029 2.446c-.687.635-1.613.953-2.78.953zm.059-5.42h-1.443v4.306h1.289c.849 0 1.498-.194 1.944-.582.447-.388.67-.936.67-1.644 0-1.387-.82-2.08-2.46-2.08zm-8.643 9.389L7.07 3.437a4.831 4.831 0 0 1-.168-1.07h-.029a5.45 5.45 0 0 1-.191 1.055l-2.175 7.69H3.079L.002.609h1.355l2.234 8.057c.093.337.152.688.176 1.055h.037c.024-.259.1-.611.227-1.055L6.353.609h1.179l2.226 8.116c.078.278.137.605.176.981h.029c.02-.254.086-.591.198-1.011L12.307.609h1.333l-2.966 10.503H9.231zm48.589 0h-1.201v-7.5h1.201v7.5z" class="cls-1"/></svg>