<svg xmlns="http://www.w3.org/2000/svg" preserveAspectRatio="xMidYMid" width="72.812" height="11.437" viewBox="0 0 72.812 11.437"><defs><style>.cls-1{fill:#fff;fill-rule:evenodd}</style></defs><path d="M67.51 7.819c.019.835.244 1.479.674 1.933.429.454 1.02.682 1.772.682.845 0 1.621-.279 2.329-.835v1.128c-.659.478-1.531.717-2.615.717-1.059 0-1.892-.341-2.497-1.021-.606-.682-.908-1.64-.908-2.875 0-1.167.33-2.118.992-2.853.661-.735 1.483-1.102 2.465-1.102.981 0 1.74.317 2.277.952.538.635.806 1.516.806 2.644v.63H67.51zm3.563-2.637c-.33-.386-.787-.579-1.373-.579a1.94 1.94 0 0 0-1.443.608c-.396.406-.64.935-.733 1.59h4.051c-.005-.694-.173-1.233-.502-1.619zm-7.885-.579c-.766 0-1.395.275-1.885.825-.491.549-.737 1.27-.737 2.164 0 .879.231 1.572.693 2.08.461.508 1.08.762 1.856.762.655 0 1.27-.218 1.846-.652v1.142c-.576.347-1.26.52-2.051.52-1.069 0-1.932-.347-2.589-1.044-.657-.695-.985-1.597-.985-2.706 0-1.235.354-2.227 1.062-2.977.708-.749 1.653-1.124 2.834-1.124.66 0 1.241.122 1.744.366v1.23c-.557-.39-1.153-.586-1.788-.586zm-6.357-2.739a.758.758 0 0 1-.549-.22.738.738 0 0 1-.227-.556c0-.225.075-.411.227-.561a.756.756 0 0 1 .549-.223c.22 0 .406.075.561.223.153.15.23.336.23.561a.743.743 0 0 1-.23.549.77.77 0 0 1-.561.227zm-2.402-.842c-.84 0-1.26.53-1.26 1.589v1.158h1.758v1.025h-1.758v6.475h-1.194V4.794h-1.282V3.769h1.282V2.553c0-.786.227-1.408.681-1.865.454-.456 1.021-.684 1.699-.684.367 0 .657.044.872.132V1.22a1.596 1.596 0 0 0-.798-.198zm-4.695 0c-.84 0-1.26.53-1.26 1.589v1.158h1.758v1.025h-1.758v6.475H47.28V4.794h-1.281V3.769h1.281V2.553c0-.786.227-1.408.681-1.865.455-.456 1.021-.684 1.7-.684.366 0 .656.044.871.132V1.22a1.596 1.596 0 0 0-.798-.198zm-9.822 10.422c-1.489 0-2.682-.49-3.578-1.472-.896-.981-1.344-2.258-1.344-3.83 0-1.69.457-3.038 1.37-4.043C37.273 1.093 38.516.59 40.088.59c1.45 0 2.618.488 3.505 1.465.886.976 1.329 2.253 1.329 3.83 0 1.714-.454 3.069-1.362 4.065-.909.996-2.124 1.494-3.648 1.494zm2.754-8.606c-.645-.757-1.533-1.135-2.666-1.135-1.104 0-2 .398-2.688 1.194-.688.796-1.033 1.841-1.033 3.135 0 1.294.336 2.335 1.007 3.123.672.789 1.547 1.183 2.626 1.183 1.152 0 2.061-.376 2.725-1.128.664-.752.996-1.804.996-3.156 0-1.387-.322-2.459-.967-3.216zm-14.315 7.969a3.58 3.58 0 0 1-1.19.487c-.45.1-.923.15-1.421.15-.166 0-.371-.013-.616-.04a8.6 8.6 0 0 1-.747-.117 6.423 6.423 0 0 1-.721-.19 2.295 2.295 0 0 1-.546-.253v-1.45c.166.146.365.278.598.395.231.117.475.216.732.297.256.08.514.142.772.186.259.044.498.066.718.066.757 0 1.322-.14 1.695-.421.374-.28.561-.685.561-1.212 0-.283-.062-.53-.187-.74a2.097 2.097 0 0 0-.516-.574c-.22-.174-.48-.34-.78-.498-.3-.159-.624-.327-.971-.502a16.812 16.812 0 0 1-1.025-.564 4.527 4.527 0 0 1-.828-.63 2.621 2.621 0 0 1-.552-.78 2.405 2.405 0 0 1-.202-1.022c0-.479.105-.895.315-1.249.21-.354.486-.646.828-.875.341-.23.731-.4 1.168-.513A5.358 5.358 0 0 1 26.772.59c1.036 0 1.79.124 2.264.373v1.385c-.62-.43-1.416-.645-2.388-.645a3.94 3.94 0 0 0-.806.084 2.303 2.303 0 0 0-.718.275c-.209.127-.38.29-.512.491a1.3 1.3 0 0 0-.198.732c0 .269.05.501.15.696.1.195.248.373.443.535.196.161.433.317.714.468.281.152.605.318.971.498.376.186.732.381 1.069.586.337.205.633.432.886.681.254.249.456.525.604.828.149.303.224.65.224 1.04 0 .518-.101.956-.304 1.315a2.5 2.5 0 0 1-.82.875zM17.815 7.299h-1.384v3.97H15.2V.766h2.886c1.123 0 1.993.273 2.611.82.617.547.927 1.318.927 2.314s-.344 1.812-1.029 2.447c-.687.634-1.613.952-2.78.952zm.059-5.42h-1.443v4.306h1.289c.849 0 1.498-.194 1.944-.582.447-.388.67-.936.67-1.644 0-1.387-.82-2.08-2.46-2.08zm-8.643 9.39L7.07 3.593a4.822 4.822 0 0 1-.168-1.07h-.029a5.45 5.45 0 0 1-.191 1.055l-2.175 7.691H3.079L.002.766h1.355l2.234 8.056c.093.337.152.689.176 1.055h.037c.024-.259.1-.61.227-1.055L6.353.766h1.179l2.226 8.115c.078.278.137.605.176.981h.029a5.94 5.94 0 0 1 .198-1.01L12.307.766h1.333l-2.966 10.503H9.231zm48.186 0h-1.201v-7.5h1.201v7.5z" class="cls-1"/></svg>