<svg xmlns="http://www.w3.org/2000/svg" preserveAspectRatio="xMidYMid" width="44.94" height="13.656" viewBox="0 0 44.94 13.656"><defs><style>.cls-1{fill:#fff;fill-rule:evenodd}</style></defs><path d="M41.263 4.4v3.718H40.4V4.4h-3.683v-.839H40.4V-.014h.863v3.575h3.682V4.4h-3.682zM30.619 7.175c2.4.51 3.36 1.425 3.36 3.165 0 2.115-1.455 3.315-4.034 3.315-1.681 0-2.926-.495-3.616-1.425-.389-.525-.554-.99-.704-1.98l1.304-.165c.045.72.15 1.08.465 1.485.495.66 1.395 1.035 2.505 1.035 1.785 0 2.865-.84 2.865-2.235 0-.735-.3-1.29-.87-1.605-.495-.285-.66-.33-2.475-.735-.945-.195-1.53-.405-2.039-.69-.931-.525-1.395-1.32-1.395-2.37 0-1.89 1.514-3.105 3.839-3.105 1.485 0 2.64.48 3.315 1.38.345.45.495.825.66 1.59l-1.26.18c-.12-.6-.24-.9-.525-1.245-.48-.57-1.245-.87-2.22-.87-1.545 0-2.624.825-2.624 2.04 0 .78.42 1.335 1.304 1.695.405.165.42.165 2.145.54zm-9.96 1.635h-3.344v2.955c0 .72.03 1.185.12 1.695h-1.41c.09-.54.12-.975.12-1.68V3.725c0-.615-.03-1.08-.12-1.71.54.03.96.045 1.65.045h3.06c2.31 0 3.614 1.185 3.614 3.27 0 2.205-1.349 3.48-3.69 3.48zm0-5.715h-3.344v4.68h3.344c1.591 0 2.491-.855 2.491-2.385 0-1.5-.87-2.295-2.491-2.295zm-8.955 8.88c-.329 1.14-.329 1.155-.389 1.485h-1.17c-.06-.3-.196-.84-.39-1.44l-1.98-6.48a15.293 15.293 0 0 1-.435-1.725c-.03.105-.06.195-.06.255-.105.39-.3 1.17-.39 1.47l-1.965 6.48c-.255.81-.315 1.065-.39 1.44H3.38c-.045-.27-.045-.27-.405-1.485L.605 3.77C.365 2.945.23 2.555-.01 2.06h1.515c.03.45.12.945.285 1.56l1.77 6.51c.105.36.195.78.405 1.695.15-.6.33-1.305.45-1.71l2.01-6.585c.165-.54.3-1.125.345-1.47h1.125c.074.45.179.9.36 1.47l2.009 6.57c.091.33.151.555.451 1.725l.404-1.725 1.77-6.48c.15-.585.255-1.125.286-1.56h1.5c-.226.51-.346.87-.585 1.71l-2.386 8.205z" class="cls-1"/></svg>